<svg width="23" height="23" viewBox="0 0 23 23" fill="none" xmlns="http://www.w3.org/2000/svg">
<path d="M14.9714 14.7898L16.5213 13.2392C16.7301 13.033 16.9942 12.8918 17.2816 12.8328C17.569 12.7738 17.8674 12.7996 18.1404 12.907L20.0294 13.6615C20.3054 13.7735 20.542 13.9648 20.7095 14.2112C20.8769 14.4575 20.9677 14.748 20.9705 15.0459V18.507C20.9689 18.7097 20.9263 18.9099 20.8453 19.0957C20.7643 19.2815 20.6465 19.4489 20.4991 19.5879C20.3517 19.727 20.1777 19.8348 19.9876 19.9048C19.7975 19.9748 19.5952 20.0056 19.3928 19.9953C6.15604 19.1715 3.48516 7.95759 2.98004 3.66583C2.95659 3.45508 2.97802 3.24174 3.0429 3.03987C3.10779 2.83799 3.21466 2.65214 3.3565 2.49456C3.49834 2.33697 3.67192 2.21121 3.86583 2.12555C4.05974 2.0399 4.26958 1.99629 4.48155 1.99759H7.82362C8.12185 1.99847 8.413 2.08859 8.65962 2.25636C8.90623 2.42413 9.09704 2.66187 9.2075 2.939L9.96171 4.82876C10.0726 5.10085 10.1009 5.39959 10.043 5.68767C9.98521 5.97575 9.84381 6.2404 9.6365 6.44855L8.08656 7.99912C8.08656 7.99912 8.97916 14.0422 14.9714 14.7898Z" fill="white"/>
</svg>
