<svg width="57" height="29" viewBox="0 0 57 29" fill="none" xmlns="http://www.w3.org/2000/svg">
<path d="M11.7873 6.552L8.37928 11.064C9.62728 11.352 10.6193 11.928 11.3553 12.792C12.1073 13.64 12.4833 14.68 12.4833 15.912C12.4833 17.592 11.9153 18.912 10.7793 19.872C9.65928 20.832 8.26728 21.312 6.60328 21.312C5.29128 21.312 4.13128 21.016 3.12328 20.424C2.11528 19.816 1.39528 18.952 0.963281 17.832L3.31528 16.464C3.81128 17.904 4.90728 18.624 6.60328 18.624C7.56328 18.624 8.32328 18.384 8.88328 17.904C9.44328 17.408 9.72328 16.744 9.72328 15.912C9.72328 15.08 9.44328 14.424 8.88328 13.944C8.32328 13.464 7.56328 13.224 6.60328 13.224H5.97928L4.87528 11.568L8.49928 6.792H1.46728V4.2H11.7873V6.552ZM19.5642 9.84H19.8762C21.6362 9.84 23.0602 10.376 24.1482 11.448C25.2522 12.504 25.8042 13.88 25.8042 15.576C25.8042 17.256 25.2522 18.64 24.1482 19.728C23.0442 20.784 21.6202 21.312 19.8762 21.312C18.1162 21.312 16.6842 20.784 15.5802 19.728C14.4762 18.64 13.9242 17.256 13.9242 15.576C13.9242 14.296 14.2602 13.168 14.9322 12.192L20.2602 4.2H23.4042L19.5642 9.84ZM19.8762 18.696C20.8042 18.696 21.5642 18.416 22.1562 17.856C22.7482 17.28 23.0442 16.52 23.0442 15.576C23.0442 14.632 22.7482 13.88 22.1562 13.32C21.5642 12.744 20.8042 12.456 19.8762 12.456C18.9162 12.456 18.1402 12.744 17.5482 13.32C16.9722 13.88 16.6842 14.632 16.6842 15.576C16.6842 16.52 16.9722 17.28 17.5482 17.856C18.1402 18.416 18.9162 18.696 19.8762 18.696ZM38.8103 18.936C37.6583 20.52 36.0423 21.312 33.9623 21.312C31.8983 21.312 30.2743 20.52 29.0903 18.936C27.9383 17.352 27.3623 15.24 27.3623 12.6C27.3623 9.96 27.9383 7.848 29.0903 6.264C30.2743 4.68 31.8983 3.888 33.9623 3.888C36.0423 3.888 37.6583 4.68 38.8103 6.264C39.9783 7.832 40.5623 9.944 40.5623 12.6C40.5623 15.256 39.9783 17.368 38.8103 18.936ZM33.9623 18.624C35.2103 18.624 36.1623 18.104 36.8183 17.064C37.4743 16.024 37.8023 14.536 37.8023 12.6C37.8023 10.664 37.4743 9.176 36.8183 8.136C36.1623 7.096 35.2103 6.576 33.9623 6.576C32.7303 6.576 31.7783 7.096 31.1063 8.136C30.4503 9.176 30.1223 10.664 30.1223 12.6C30.1223 14.536 30.4503 16.024 31.1063 17.064C31.7783 18.104 32.7303 18.624 33.9623 18.624ZM53.9275 18.936C52.7755 20.52 51.1595 21.312 49.0795 21.312C47.0155 21.312 45.3915 20.52 44.2075 18.936C43.0555 17.352 42.4795 15.24 42.4795 12.6C42.4795 9.96 43.0555 7.848 44.2075 6.264C45.3915 4.68 47.0155 3.888 49.0795 3.888C51.1595 3.888 52.7755 4.68 53.9275 6.264C55.0955 7.832 55.6795 9.944 55.6795 12.6C55.6795 15.256 55.0955 17.368 53.9275 18.936ZM49.0795 18.624C50.3275 18.624 51.2795 18.104 51.9355 17.064C52.5915 16.024 52.9195 14.536 52.9195 12.6C52.9195 10.664 52.5915 9.176 51.9355 8.136C51.2795 7.096 50.3275 6.576 49.0795 6.576C47.8475 6.576 46.8955 7.096 46.2235 8.136C45.5675 9.176 45.2395 10.664 45.2395 12.6C45.2395 14.536 45.5675 16.024 46.2235 17.064C46.8955 18.104 47.8475 18.624 49.0795 18.624Z" fill="#333333"/>
</svg>
